{
  "accessors": [
    {
      "bufferView": 1,
      "componentType": 5126,
      "count": 34026,
      "max": [
        0.09149642288684845,
        -0.15011237561702728,
        2.8102800846099854
      ],
      "min": [
        -2.992034435272217,
        -1.8933966159820557,
        -2.8102800846099854
      ],
      "type": "VEC3"
    },
    {
      "bufferView": 1,
      "byteOffset": 408312,
      "componentType": 5126,
      "count": 34026,
      "max": [
        1.0,
        0.9999902844429016,
        1.0
      ],
      "min": [
        -1.0,
        -0.9999995231628418,
        -0.9999633431434631
      ],
      "type": "VEC3"
    },
    {
      "bufferView": 0,
      "componentType": 5125,
      "count": 108618,
      "type": "SCALAR"
    },
    {
      "bufferView": 1,
      "byteOffset": 816624,
      "componentType": 5126,
      "count": 784,
      "max": [
        0.06182406097650528,
        -0.412043958902359,
        2.700831174850464
      ],
      "min": [
        0.06182406097650528,
        -1.735061526298523,
        -2.700831174850464
      ],
      "type": "VEC3"
    },
    {
      "bufferView": 1,
      "byteOffset": 826032,
      "componentType": 5126,
      "count": 784,
      "max": [
        -1.0,
        0.0,
        6.736590396627662e-09
      ],
      "min": [
        -1.0,
        0.0,
        -1.0078361478704778e-09
      ],
      "type": "VEC3"
    },
    {
      "bufferView": 0,
      "byteOffset": 434472,
      "componentType": 5125,
      "count": 2340,
      "type": "SCALAR"
    }
  ],
  "asset": {
    "extras": {
      "author": "rodrivgm (https://sketchfab.com/rodrivgm)",
      "license": "CC-BY-4.0 (http://creativecommons.org/licenses/by/4.0/)",
      "source": "https://sketchfab.com/3d-models/doflamingo-glasses-eff1abae35ac4b0f8a1b2a7119670302",
      "title": "Doflamingo Glasses"
    },
    "generator": "Sketchfab-12.68.0",
    "version": "2.0"
  },
  "bufferViews": [
    {
      "buffer": 0,
      "byteLength": 443832,
      "name": "floatBufferViews",
      "target": 34963
    },
    {
      "buffer": 0,
      "byteLength": 835440,
      "byteOffset": 443832,
      "byteStride": 12,
      "name": "floatBufferViews",
      "target": 34962
    }
  ],
  "buffers": [
    {
      "byteLength": 1279272,
      "uri": "scene.bin"
    }
  ],
  "extensionsRequired": [
    "KHR_materials_pbrSpecularGlossiness"
  ],
  "extensionsUsed": [
    "KHR_materials_pbrSpecularGlossiness"
  ],
  "materials": [
    {
      "doubleSided": true,
      "extensions": {
        "KHR_materials_pbrSpecularGlossiness": {
          "diffuseFactor": [
            0.8,
            0.8,
            0.8,
            1.0
          ],
          "glossinessFactor": 0.5,
          "specularFactor": [
            0.0,
            0.0,
            0.0
          ]
        }
      },
      "name": "Material.001"
    },
    {
      "alphaMode": "BLEND",
      "doubleSided": true,
      "extensions": {
        "KHR_materials_pbrSpecularGlossiness": {
          "diffuseFactor": [
            0.9700679790705267,
            0.019251708267658214,
            0.12818867817290777,
            0.810373079425302
          ],
          "glossinessFactor": 0.0,
          "specularFactor": [
            0.054958446021525685,
            0.007684793522498305,
            0.0979715606401697
          ]
        }
      },
      "name": "Material.002"
    }
  ],
  "meshes": [
    {
      "name": "Object_0",
      "primitives": [
        {
          "attributes": {
            "NORMAL": 1,
            "POSITION": 0
          },
          "indices": 2,
          "material": 0,
          "mode": 4
        }
      ]
    },
    {
      "name": "Object_1",
      "primitives": [
        {
          "attributes": {
            "NORMAL": 4,
            "POSITION": 3
          },
          "indices": 5,
          "material": 1,
          "mode": 4
        }
      ]
    }
  ],
  "nodes": [
    {
      "children": [
        1
      ],
      "matrix": [
        1.0,
        0.0,
        0.0,
        0.0,
        0.0,
        2.220446049250313e-16,
        -1.0,
        0.0,
        0.0,
        1.0,
        2.220446049250313e-16,
        0.0,
        0.0,
        0.0,
        0.0,
        1.0
      ],
      "name": "Sketchfab_model"
    },
    {
      "children": [
        2
      ],
      "name": "root"
    },
    {
      "children": [
        3
      ],
      "matrix": [
        1.0,
        0.0,
        0.0,
        0.0,
        0.0,
        2.220446049250313e-16,
        1.0,
        0.0,
        0.0,
        -1.0,
        2.220446049250313e-16,
        0.0,
        0.0,
        0.0,
        0.0,
        1.0
      ],
      "name": "GLTF_SceneRootNode"
    },
    {
      "children": [
        4,
        5
      ],
      "matrix": [
        0.9283953313767499,
        0.3715940105516433,
        0.0,
        0.0,
        -0.3715940105516433,
        0.9283953313767499,
        0.0,
        0.0,
        0.0,
        0.0,
        1.0,
        0.0,
        0.0,
        0.0,
        0.0,
        1.0
      ],
      "name": "Vert_2"
    },
    {
      "mesh": 0,
      "name": "Object_4"
    },
    {
      "mesh": 1,
      "name": "Object_5"
    }
  ],
  "scene": 0,
  "scenes": [
    {
      "name": "Sketchfab_Scene",
      "nodes": [
        0
      ]
    }
  ]
}
